<svg width="24" height="24" viewBox="0 0 24 24" fill="none" xmlns="http://www.w3.org/2000/svg">
<path fill-rule="evenodd" clip-rule="evenodd" d="M4 5C3.44775 5 3 5.44771 3 6C3 6.55229 3.44775 7 4 7H20C20.5522 7 21 6.55229 21 6C21 5.44771 20.5522 5 20 5H4ZM4 13C3.44775 13 3 12.5523 3 12C3 11.4477 3.44775 11 4 11H20C20.5522 11 21 11.4477 21 12C21 12.5523 20.5522 13 20 13H4ZM4 19C3.44775 19 3 18.5523 3 18C3 17.4477 3.44775 17 4 17H20C20.5522 17 21 17.4477 21 18C21 18.5523 20.5522 19 20 19H4Z" fill="black" style="fill:black;fill-opacity:1;"/>
</svg>
