<svg width="27" height="23" viewBox="0 0 27 23" fill="none" xmlns="http://www.w3.org/2000/svg">
<path d="M26.9297 11.1621C26.9297 11.7598 26.6836 12.3574 26.2793 12.7617L17.3496 21.6562C16.8926 22.0957 16.3652 22.3242 15.8555 22.3242C14.5898 22.3242 13.7285 21.4453 13.7285 20.2852C13.7285 19.6523 14.0098 19.1426 14.4141 18.7559L17.209 15.9434L20.2676 13.1484L17.2617 13.3242H2.23242C0.896484 13.3242 0 12.4453 0 11.1621C0 9.87891 0.896484 9.01758 2.23242 9.01758H17.2617L20.2676 9.19336L17.209 6.39844L14.4141 3.58594C14.0098 3.18164 13.7285 2.68945 13.7285 2.03906C13.7285 0.878906 14.5898 0 15.8555 0C16.3652 0 16.8926 0.228516 17.3496 0.685547L26.2793 9.58008C26.6836 9.98438 26.9297 10.582 26.9297 11.1621Z" fill="black" style="fill:black;fill-opacity:1;"/>
</svg>
